<?xml version="1.0" encoding="utf-8" standalone="no"?>
<!DOCTYPE svg PUBLIC "-//W3C//DTD SVG 1.1//EN"
  "http://www.w3.org/Graphics/SVG/1.1/DTD/svg11.dtd">
<svg xmlns:xlink="http://www.w3.org/1999/xlink" width="784.08pt" height="169.2pt" viewBox="0 0 784.08 169.2" xmlns="http://www.w3.org/2000/svg" version="1.1">
 <metadata>
  <rdf:RDF xmlns:dc="http://purl.org/dc/elements/1.1/" xmlns:cc="http://creativecommons.org/ns#" xmlns:rdf="http://www.w3.org/1999/02/22-rdf-syntax-ns#">
   <cc:Work>
    <dc:type rdf:resource="http://purl.org/dc/dcmitype/StillImage"/>
    <dc:date>2026-02-14T01:40:51.939037</dc:date>
    <dc:format>image/svg+xml</dc:format>
    <dc:creator>
     <cc:Agent>
      <dc:title>Matplotlib v3.7.5, https://matplotlib.org/</dc:title>
     </cc:Agent>
    </dc:creator>
   </cc:Work>
  </rdf:RDF>
 </metadata>
 <defs>
  <style type="text/css">*{stroke-linejoin: round; stroke-linecap: butt}</style>
 </defs>
 <g id="figure_1">
  <g id="patch_1">
   <path d="M 0 169.2 
L 784.08 169.2 
L 784.08 0 
L 0 0 
L 0 169.2 
z
" style="fill: none"/>
  </g>
  <g id="axes_1">
   <g id="patch_2">
    <path d="M 27.48 51.336 
C 29.206472 51.336 30.862465 50.459774 32.083265 48.9003 
C 33.304065 47.340826 33.99 45.225429 33.99 43.02 
C 33.99 40.814571 33.304065 38.699174 32.083265 37.1397 
C 30.862465 35.580226 29.206472 34.704 27.48 34.704 
C 25.753528 34.704 24.097535 35.580226 22.876735 37.1397 
C 21.655935 38.699174 20.97 40.814571 20.97 43.02 
C 20.97 45.225429 21.655935 47.340826 22.876735 48.9003 
C 24.097535 50.459774 25.753528 51.336 27.48 51.336 
z
" clip-path="url(#p2df07ad38b)" style="fill: #00a7c7"/>
   </g>
   <g id="patch_3">
    <path d="M 27.48 134.496 
C 29.206472 134.496 30.862465 133.619774 32.083265 132.0603 
C 33.304065 130.500826 33.99 128.385429 33.99 126.18 
C 33.99 123.974571 33.304065 121.859174 32.083265 120.2997 
C 30.862465 118.740226 29.206472 117.864 27.48 117.864 
C 25.753528 117.864 24.097535 118.740226 22.876735 120.2997 
C 21.655935 121.859174 20.97 123.974571 20.97 126.18 
C 20.97 128.385429 21.655935 130.500826 22.876735 132.0603 
C 24.097535 133.619774 25.753528 134.496 27.48 134.496 
z
" clip-path="url(#p2df07ad38b)" style="fill: #00a7c7"/>
   </g>
   <g id="patch_4">
    <path d="M 79.56 51.336 
C 81.286472 51.336 82.942465 50.459774 84.163265 48.9003 
C 85.384065 47.340826 86.07 45.225429 86.07 43.02 
C 86.07 40.814571 85.384065 38.699174 84.163265 37.1397 
C 82.942465 35.580226 81.286472 34.704 79.56 34.704 
C 77.833528 34.704 76.177535 35.580226 74.956735 37.1397 
C 73.735935 38.699174 73.05 40.814571 73.05 43.02 
C 73.05 45.225429 73.735935 47.340826 74.956735 48.9003 
C 76.177535 50.459774 77.833528 51.336 79.56 51.336 
z
" clip-path="url(#p2df07ad38b)" style="fill: #00a7c7"/>
   </g>
   <g id="patch_5">
    <path d="M 79.56 134.496 
C 81.286472 134.496 82.942465 133.619774 84.163265 132.0603 
C 85.384065 130.500826 86.07 128.385429 86.07 126.18 
C 86.07 123.974571 85.384065 121.859174 84.163265 120.2997 
C 82.942465 118.740226 81.286472 117.864 79.56 117.864 
C 77.833528 117.864 76.177535 118.740226 74.956735 120.2997 
C 73.735935 121.859174 73.05 123.974571 73.05 126.18 
C 73.05 128.385429 73.735935 130.500826 74.956735 132.0603 
C 76.177535 133.619774 77.833528 134.496 79.56 134.496 
z
" clip-path="url(#p2df07ad38b)" style="fill: #00a7c7"/>
   </g>
   <g id="patch_6">
    <path d="M 14.46 34.704 
C 16.186472 34.704 17.842465 33.827774 19.063265 32.2683 
C 20.284065 30.708826 20.97 28.593429 20.97 26.388 
C 20.97 24.182571 20.284065 22.067174 19.063265 20.5077 
C 17.842465 18.948226 16.186472 18.072 14.46 18.072 
C 12.733528 18.072 11.077535 18.948226 9.856735 20.5077 
C 8.635935 22.067174 7.95 24.182571 7.95 26.388 
C 7.95 28.593429 8.635935 30.708826 9.856735 32.2683 
C 11.077535 33.827774 12.733528 34.704 14.46 34.704 
z
" clip-path="url(#p2df07ad38b)" style="fill: #00a7c7"/>
   </g>
   <g id="patch_7">
    <path d="M 14.46 151.128 
C 16.186472 151.128 17.842465 150.251774 19.063265 148.6923 
C 20.284065 147.132826 20.97 145.017429 20.97 142.812 
C 20.97 140.606571 20.284065 138.491174 19.063265 136.9317 
C 17.842465 135.372226 16.186472 134.496 14.46 134.496 
C 12.733528 134.496 11.077535 135.372226 9.856735 136.9317 
C 8.635935 138.491174 7.95 140.606571 7.95 142.812 
C 7.95 145.017429 8.635935 147.132826 9.856735 148.6923 
C 11.077535 150.251774 12.733528 151.128 14.46 151.128 
z
" clip-path="url(#p2df07ad38b)" style="fill: #00a7c7"/>
   </g>
   <g id="patch_8">
    <path d="M 92.58 34.704 
C 94.306472 34.704 95.962465 33.827774 97.183265 32.2683 
C 98.404065 30.708826 99.09 28.593429 99.09 26.388 
C 99.09 24.182571 98.404065 22.067174 97.183265 20.5077 
C 95.962465 18.948226 94.306472 18.072 92.58 18.072 
C 90.853528 18.072 89.197535 18.948226 87.976735 20.5077 
C 86.755935 22.067174 86.07 24.182571 86.07 26.388 
C 86.07 28.593429 86.755935 30.708826 87.976735 32.2683 
C 89.197535 33.827774 90.853528 34.704 92.58 34.704 
z
" clip-path="url(#p2df07ad38b)" style="fill: #00a7c7"/>
   </g>
   <g id="patch_9">
    <path d="M 92.58 151.128 
C 94.306472 151.128 95.962465 150.251774 97.183265 148.6923 
C 98.404065 147.132826 99.09 145.017429 99.09 142.812 
C 99.09 140.606571 98.404065 138.491174 97.183265 136.9317 
C 95.962465 135.372226 94.306472 134.496 92.58 134.496 
C 90.853528 134.496 89.197535 135.372226 87.976735 136.9317 
C 86.755935 138.491174 86.07 140.606571 86.07 142.812 
C 86.07 145.017429 86.755935 147.132826 87.976735 148.6923 
C 89.197535 150.251774 90.853528 151.128 92.58 151.128 
z
" clip-path="url(#p2df07ad38b)" style="fill: #00a7c7"/>
   </g>
   <g id="patch_10">
    <path d="M 27.48 51.336 
C 29.206472 51.336 30.862465 50.459774 32.083265 48.9003 
C 33.304065 47.340826 33.99 45.225429 33.99 43.02 
C 33.99 40.814571 33.304065 38.699174 32.083265 37.1397 
C 30.862465 35.580226 29.206472 34.704 27.48 34.704 
C 25.753528 34.704 24.097535 35.580226 22.876735 37.1397 
C 21.655935 38.699174 20.97 40.814571 20.97 43.02 
C 20.97 45.225429 21.655935 47.340826 22.876735 48.9003 
C 24.097535 50.459774 25.753528 51.336 27.48 51.336 
L 27.48 51.336 
z
" clip-path="url(#p2df07ad38b)" style="fill: none; opacity: 0.1; stroke: #ffffff; stroke-width: 2; stroke-linejoin: miter"/>
   </g>
   <g id="patch_11">
    <path d="M 27.48 134.496 
C 29.206472 134.496 30.862465 133.619774 32.083265 132.0603 
C 33.304065 130.500826 33.99 128.385429 33.99 126.18 
C 33.99 123.974571 33.304065 121.859174 32.083265 120.2997 
C 30.862465 118.740226 29.206472 117.864 27.48 117.864 
C 25.753528 117.864 24.097535 118.740226 22.876735 120.2997 
C 21.655935 121.859174 20.97 123.974571 20.97 126.18 
C 20.97 128.385429 21.655935 130.500826 22.876735 132.0603 
C 24.097535 133.619774 25.753528 134.496 27.48 134.496 
L 27.48 134.496 
z
" clip-path="url(#p2df07ad38b)" style="fill: none; opacity: 0.1; stroke: #ffffff; stroke-width: 2; stroke-linejoin: miter"/>
   </g>
   <g id="patch_12">
    <path d="M 79.56 51.336 
C 81.286472 51.336 82.942465 50.459774 84.163265 48.9003 
C 85.384065 47.340826 86.07 45.225429 86.07 43.02 
C 86.07 40.814571 85.384065 38.699174 84.163265 37.1397 
C 82.942465 35.580226 81.286472 34.704 79.56 34.704 
C 77.833528 34.704 76.177535 35.580226 74.956735 37.1397 
C 73.735935 38.699174 73.05 40.814571 73.05 43.02 
C 73.05 45.225429 73.735935 47.340826 74.956735 48.9003 
C 76.177535 50.459774 77.833528 51.336 79.56 51.336 
L 79.56 51.336 
z
" clip-path="url(#p2df07ad38b)" style="fill: none; opacity: 0.1; stroke: #ffffff; stroke-width: 2; stroke-linejoin: miter"/>
   </g>
   <g id="patch_13">
    <path d="M 79.56 134.496 
C 81.286472 134.496 82.942465 133.619774 84.163265 132.0603 
C 85.384065 130.500826 86.07 128.385429 86.07 126.18 
C 86.07 123.974571 85.384065 121.859174 84.163265 120.2997 
C 82.942465 118.740226 81.286472 117.864 79.56 117.864 
C 77.833528 117.864 76.177535 118.740226 74.956735 120.2997 
C 73.735935 121.859174 73.05 123.974571 73.05 126.18 
C 73.05 128.385429 73.735935 130.500826 74.956735 132.0603 
C 76.177535 133.619774 77.833528 134.496 79.56 134.496 
L 79.56 134.496 
z
" clip-path="url(#p2df07ad38b)" style="fill: none; opacity: 0.1; stroke: #ffffff; stroke-width: 2; stroke-linejoin: miter"/>
   </g>
   <g id="patch_14">
    <path d="M 14.46 34.704 
C 16.186472 34.704 17.842465 33.827774 19.063265 32.2683 
C 20.284065 30.708826 20.97 28.593429 20.97 26.388 
C 20.97 24.182571 20.284065 22.067174 19.063265 20.5077 
C 17.842465 18.948226 16.186472 18.072 14.46 18.072 
C 12.733528 18.072 11.077535 18.948226 9.856735 20.5077 
C 8.635935 22.067174 7.95 24.182571 7.95 26.388 
C 7.95 28.593429 8.635935 30.708826 9.856735 32.2683 
C 11.077535 33.827774 12.733528 34.704 14.46 34.704 
L 14.46 34.704 
z
" clip-path="url(#p2df07ad38b)" style="fill: none; opacity: 0.1; stroke: #ffffff; stroke-width: 2; stroke-linejoin: miter"/>
   </g>
   <g id="patch_15">
    <path d="M 14.46 151.128 
C 16.186472 151.128 17.842465 150.251774 19.063265 148.6923 
C 20.284065 147.132826 20.97 145.017429 20.97 142.812 
C 20.97 140.606571 20.284065 138.491174 19.063265 136.9317 
C 17.842465 135.372226 16.186472 134.496 14.46 134.496 
C 12.733528 134.496 11.077535 135.372226 9.856735 136.9317 
C 8.635935 138.491174 7.95 140.606571 7.95 142.812 
C 7.95 145.017429 8.635935 147.132826 9.856735 148.6923 
C 11.077535 150.251774 12.733528 151.128 14.46 151.128 
L 14.46 151.128 
z
" clip-path="url(#p2df07ad38b)" style="fill: none; opacity: 0.1; stroke: #ffffff; stroke-width: 2; stroke-linejoin: miter"/>
   </g>
   <g id="patch_16">
    <path d="M 92.58 34.704 
C 94.306472 34.704 95.962465 33.827774 97.183265 32.2683 
C 98.404065 30.708826 99.09 28.593429 99.09 26.388 
C 99.09 24.182571 98.404065 22.067174 97.183265 20.5077 
C 95.962465 18.948226 94.306472 18.072 92.58 18.072 
C 90.853528 18.072 89.197535 18.948226 87.976735 20.5077 
C 86.755935 22.067174 86.07 24.182571 86.07 26.388 
C 86.07 28.593429 86.755935 30.708826 87.976735 32.2683 
C 89.197535 33.827774 90.853528 34.704 92.58 34.704 
L 92.58 34.704 
z
" clip-path="url(#p2df07ad38b)" style="fill: none; opacity: 0.1; stroke: #ffffff; stroke-width: 2; stroke-linejoin: miter"/>
   </g>
   <g id="patch_17">
    <path d="M 92.58 151.128 
C 94.306472 151.128 95.962465 150.251774 97.183265 148.6923 
C 98.404065 147.132826 99.09 145.017429 99.09 142.812 
C 99.09 140.606571 98.404065 138.491174 97.183265 136.9317 
C 95.962465 135.372226 94.306472 134.496 92.58 134.496 
C 90.853528 134.496 89.197535 135.372226 87.976735 136.9317 
C 86.755935 138.491174 86.07 140.606571 86.07 142.812 
C 86.07 145.017429 86.755935 147.132826 87.976735 148.6923 
C 89.197535 150.251774 90.853528 151.128 92.58 151.128 
L 92.58 151.128 
z
" clip-path="url(#p2df07ad38b)" style="fill: none; opacity: 0.1; stroke: #ffffff; stroke-width: 2; stroke-linejoin: miter"/>
   </g>
   <g id="line2d_1">
    <path d="M 27.48 43.02 
L 27.48 126.18 
" clip-path="url(#p2df07ad38b)" style="fill: none; stroke: #4b4f56; stroke-width: 12; stroke-linecap: round"/>
   </g>
   <g id="line2d_2">
    <path d="M 27.48 126.18 
L 79.56 43.02 
" clip-path="url(#p2df07ad38b)" style="fill: none; stroke: #00a7c7; stroke-width: 12; stroke-linecap: round"/>
   </g>
   <g id="line2d_3">
    <path d="M 79.56 43.02 
L 79.56 126.18 
" clip-path="url(#p2df07ad38b)" style="fill: none; stroke: #4b4f56; stroke-width: 12; stroke-linecap: round"/>
   </g>
   <g id="line2d_4">
    <path d="M 27.48 43.02 
L 14.46 26.388 
" clip-path="url(#p2df07ad38b)" style="fill: none; stroke: #4b4f56; stroke-width: 12; stroke-linecap: round"/>
   </g>
   <g id="line2d_5">
    <path d="M 27.48 126.18 
L 14.46 142.812 
" clip-path="url(#p2df07ad38b)" style="fill: none; stroke: #4b4f56; stroke-width: 12; stroke-linecap: round"/>
   </g>
   <g id="line2d_6">
    <path d="M 79.56 43.02 
L 92.58 26.388 
" clip-path="url(#p2df07ad38b)" style="fill: none; stroke: #4b4f56; stroke-width: 12; stroke-linecap: round"/>
   </g>
   <g id="line2d_7">
    <path d="M 79.56 126.18 
L 92.58 142.812 
" clip-path="url(#p2df07ad38b)" style="fill: none; stroke: #4b4f56; stroke-width: 12; stroke-linecap: round"/>
   </g>
   <g id="text_1">
    <!-- Nektron -->
    <g style="fill: #00a7c7" transform="translate(144.66 109.35) scale(0.96 -0.96)">
     <defs>
      <path id="InterDisplay-SemiBold-4e" d="M 291 0 
L 1141 0 
L 1141 3256 
L 1153 3256 
L 3272 0 
L 4125 0 
L 4125 4600 
L 3275 4600 
L 3275 1350 
L 3263 1350 
L 1144 4600 
L 291 4600 
L 291 0 
z
" transform="scale(0.015625)"/>
      <path id="InterDisplay-SemiBold-65" d="M 1753 -50 
C 2544 -50 3116 375 3234 1028 
L 2484 1028 
C 2397 747 2103 572 1763 569 
C 1256 572 956 959 959 1441 
L 959 1453 
L 3269 1453 
L 3269 1650 
C 3269 2669 2684 3350 1738 3350 
C 778 3350 159 2653 159 1647 
C 159 622 778 -50 1753 -50 
z
M 963 1981 
C 988 2381 1284 2731 1738 2731 
C 2166 2731 2494 2425 2509 1981 
L 963 1981 
z
" transform="scale(0.015625)"/>
      <path id="InterDisplay-SemiBold-6b" d="M 288 0 
L 1103 0 
L 1103 1088 
L 1397 1397 
L 2453 0 
L 3425 0 
L 2016 1872 
L 3347 3300 
L 2388 3300 
L 1150 1997 
L 1103 1997 
L 1103 4600 
L 288 4600 
L 288 0 
z
" transform="scale(0.015625)"/>
      <path id="InterDisplay-SemiBold-74" d="M 1556 -16 
C 1759 -16 1913 -3 2003 6 
L 1950 663 
C 1900 656 1816 650 1725 650 
C 1506 650 1353 700 1353 1025 
L 1353 2650 
L 1984 2650 
L 1984 3300 
L 1353 3300 
L 1353 4119 
L 538 4119 
L 538 3300 
L 69 3300 
L 69 2650 
L 538 2650 
L 538 891 
C 538 253 956 -16 1556 -16 
z
" transform="scale(0.015625)"/>
      <path id="InterDisplay-SemiBold-72" d="M 288 0 
L 1100 0 
L 1100 1881 
C 1100 2375 1397 2625 1763 2625 
C 1906 2625 2069 2603 2141 2578 
L 2141 3322 
C 2078 3338 1984 3350 1881 3350 
C 1488 3350 1216 3128 1094 2728 
L 1069 2728 
L 1069 3300 
L 288 3300 
L 288 0 
z
" transform="scale(0.015625)"/>
      <path id="InterDisplay-SemiBold-6f" d="M 1788 -50 
C 2769 -50 3416 631 3416 1647 
C 3416 2669 2766 3350 1788 3350 
C 809 3350 159 2669 159 1647 
C 159 631 809 -50 1788 -50 
z
M 1788 606 
C 1313 606 984 1013 984 1647 
C 981 2284 1309 2697 1788 2697 
C 2263 2697 2591 2284 2591 1647 
C 2591 1013 2259 606 1788 606 
z
" transform="scale(0.015625)"/>
      <path id="InterDisplay-SemiBold-6e" d="M 1106 1878 
C 1106 2413 1416 2663 1825 2663 
C 2250 2663 2519 2406 2519 1928 
L 2519 0 
L 3331 0 
L 3331 2053 
C 3331 2878 2797 3350 2103 3350 
C 1588 3350 1241 3088 1094 2722 
L 1081 2722 
L 1081 3300 
L 291 3300 
L 291 0 
L 1106 0 
L 1106 1878 
z
" transform="scale(0.015625)"/>
     </defs>
     <use xlink:href="#InterDisplay-SemiBold-4e"/>
     <use xlink:href="#InterDisplay-SemiBold-65" x="68.994141"/>
     <use xlink:href="#InterDisplay-SemiBold-6b" x="122.607422"/>
     <use xlink:href="#InterDisplay-SemiBold-74" x="176.611328"/>
     <use xlink:href="#InterDisplay-SemiBold-72" x="210.839844"/>
     <use xlink:href="#InterDisplay-SemiBold-6f" x="245.507812"/>
     <use xlink:href="#InterDisplay-SemiBold-6e" x="301.367188"/>
    </g>
   </g>
   <g id="text_2">
    <!-- AI -->
    <g style="fill: #4b4f56" transform="translate(494.835 109.35) scale(0.96 -0.96)">
     <defs>
      <path id="InterDisplay-Bold-41" d="M 44 0 
L 1081 0 
L 1425 1047 
L 3100 1047 
L 3438 0 
L 4516 0 
L 2922 4600 
L 1638 4600 
L 44 0 
z
M 1684 1834 
L 2269 3613 
L 2275 3613 
L 2847 1834 
L 1684 1834 
z
" transform="scale(0.015625)"/>
      <path id="InterDisplay-Bold-49" d="M 1259 4600 
L 259 4600 
L 259 0 
L 1259 0 
L 1259 4600 
z
" transform="scale(0.015625)"/>
     </defs>
     <use xlink:href="#InterDisplay-Bold-41"/>
     <use xlink:href="#InterDisplay-Bold-49" x="71.240234"/>
    </g>
   </g>
  </g>
 </g>
 <defs>
  <clipPath id="p2df07ad38b">
   <rect x="1.44" y="1.44" width="781.2" height="166.32"/>
  </clipPath>
 </defs>
</svg>
