<svg baseProfile="full" height="500" version="1.1" viewBox="0,0,1800,500" width="1800" xmlns="http://www.w3.org/2000/svg" xmlns:ev="http://www.w3.org/2001/xml-events" xmlns:xlink="http://www.w3.org/1999/xlink"><defs><radialGradient cx="32%" cy="28%" id="orbGrad" r="72%"><stop offset="0" stop-color="#C8FCFE" stop-opacity="1" /><stop offset="0.3" stop-color="#0AD7F8" stop-opacity="0.92" /><stop offset="0.65" stop-color="#0A5FA8" stop-opacity="0.96" /><stop offset="1.0" stop-color="#063B6D" stop-opacity="1" /></radialGradient><linearGradient id="ringGrad" x1="0%" x2="100%" y1="0%" y2="100%"><stop offset="0" stop-color="#C8FCFE" stop-opacity="1" /><stop offset="0.55" stop-color="#0AD7F8" stop-opacity="0.96" /><stop offset="1.0" stop-color="#0A5FA8" stop-opacity="0.92" /></linearGradient><clipPath id="clipOrb"><circle cx="210" cy="250" r="114.0" /></clipPath></defs><g id="mark"><ellipse cx="210" cy="250" fill="none" opacity="0.18" rx="119.7" ry="70.67999999999999" stroke="#0AD7F8" stroke-width="10.26" transform="rotate(-22 210 250)" /><circle cx="210" cy="250" fill="url(#orbGrad)" r="114.0" /><ellipse cx="184.92" cy="224.92" fill="#C8FCFE" opacity="0.1" rx="62.7" ry="43.32" /><g clip-path="url(#clipOrb)"><path d="M 147.30 221.50 C 192.90 181.60 249.90 221.50 272.70 238.60" fill="none" opacity="0.18" stroke="#0AD7F8" stroke-linecap="round" stroke-linejoin="round" stroke-width="11.4" /><path d="M 147.30 221.50 C 192.90 181.60 249.90 221.50 272.70 238.60" fill="none" opacity="0.86" stroke="#C8FCFE" stroke-linecap="round" stroke-linejoin="round" stroke-width="5.7" /><path d="M 221.40 232.90 C 204.30 255.70 181.50 261.40 158.70 278.50" fill="none" opacity="0.18" stroke="#0AD7F8" stroke-linecap="round" stroke-linejoin="round" stroke-width="11.4" /><path d="M 221.40 232.90 C 204.30 255.70 181.50 261.40 158.70 278.50" fill="none" opacity="0.86" stroke="#C8FCFE" stroke-linecap="round" stroke-linejoin="round" stroke-width="5.7" /><path d="M 238.50 255.70 C 221.40 278.50 204.30 289.90 187.20 304.72" fill="none" opacity="0.18" stroke="#0AD7F8" stroke-linecap="round" stroke-linejoin="round" stroke-width="11.4" /><path d="M 238.50 255.70 C 221.40 278.50 204.30 289.90 187.20 304.72" fill="none" opacity="0.86" stroke="#C8FCFE" stroke-linecap="round" stroke-linejoin="round" stroke-width="5.7" /><path d="M 261.30 240.88 C 244.20 261.40 227.10 275.08 210.00 289.90" fill="none" opacity="0.18" stroke="#0AD7F8" stroke-linecap="round" stroke-linejoin="round" stroke-width="11.4" /><path d="M 261.30 240.88 C 244.20 261.40 227.10 275.08 210.00 289.90" fill="none" opacity="0.86" stroke="#C8FCFE" stroke-linecap="round" stroke-linejoin="round" stroke-width="5.7" /><circle cx="147.3" cy="221.5" fill="#0AD7F8" opacity="0.18" r="11.628" /><circle cx="147.3" cy="221.5" fill="#C8FCFE" opacity="0.95" r="6.84" /><circle cx="272.7" cy="238.6" fill="#0AD7F8" opacity="0.18" r="11.628" /><circle cx="272.7" cy="238.6" fill="#C8FCFE" opacity="0.95" r="6.84" /><circle cx="221.4" cy="232.9" fill="#0AD7F8" opacity="0.18" r="11.628" /><circle cx="221.4" cy="232.9" fill="#C8FCFE" opacity="0.95" r="6.84" /><circle cx="158.7" cy="278.5" fill="#0AD7F8" opacity="0.18" r="11.628" /><circle cx="158.7" cy="278.5" fill="#C8FCFE" opacity="0.95" r="6.84" /><circle cx="187.2" cy="304.72" fill="#0AD7F8" opacity="0.18" r="11.628" /><circle cx="187.2" cy="304.72" fill="#C8FCFE" opacity="0.95" r="6.84" /><circle cx="261.3" cy="240.88" fill="#0AD7F8" opacity="0.18" r="11.628" /><circle cx="261.3" cy="240.88" fill="#C8FCFE" opacity="0.95" r="6.84" /><circle cx="210.0" cy="289.9" fill="#0AD7F8" opacity="0.18" r="11.628" /><circle cx="210.0" cy="289.9" fill="#C8FCFE" opacity="0.95" r="6.84" /></g><ellipse cx="210" cy="250" fill="none" opacity="0.86" rx="119.7" ry="70.67999999999999" stroke="url(#ringGrad)" stroke-dasharray="263.3 478.8" stroke-dashoffset="101.745" stroke-linecap="round" stroke-width="10.26" transform="rotate(-22 210 250)" /></g></svg>